#N canvas 830 323 451 387 10;
#X obj 272 51 inlet;
#X text 10 6 ADSR message generator with additional sustain stage;
#X obj 11 52 cnv 15 235 126 empty empty empty 20 12 0 14 -134265 -66577
0;
#X text 20 68 A:;
#X text 20 84 D:;
#X text 13 100 S1:;
#X text 13 116 S2:;
#X text 20 132 R:;
#X obj 90 68 hsl 100 14 0 60 0 0 \$0_a empty empty -2 -8 0 10 -262144
-1 -1 825 1;
#X obj 51 233 change;
#X obj 43 68 nbx 4 14 0 60 0 0 \$0-a \$0-a-L empty 0 -8 0 9 -262144
-1 -1 5 256;
#X obj 197 68 nbx 4 14 0 100 0 0 \$0-a-db \$0-a-db-L empty 0 -8 0 9
-262144 -1 -1 100 256;
#X obj 90 84 hsl 100 14 0 60 0 0 \$0_a empty empty -2 -8 0 10 -262144
-1 -1 1500 1;
#X obj 51 249 change;
#X obj 43 84 nbx 4 14 0 60 0 0 \$0-d \$0-d-L empty 0 -8 0 9 -262144
-1 -1 9.09091 256;
#X obj 197 84 nbx 4 14 0 100 0 0 \$0-d-db \$0-d-db-L empty 0 -8 0 9
-262144 -1 -1 64 256;
#X obj 90 132 hsl 100 14 0 60 0 0 \$0_a empty empty -2 -8 0 10 -262144
-1 -1 700 1;
#X obj 51 297 change;
#X obj 43 132 nbx 4 14 0 60 0 0 \$0-r \$0-r-L empty 0 -8 0 9 -262144
-1 -1 4.24242 256;
#X obj 197 132 nbx 4 14 0 0 0 0 \$0-r-db \$0-r-db-L empty 0 -8 0 9
-262144 -1 -1 0 256;
#X obj 90 100 hsl 100 14 0 60 0 0 \$0_a empty empty -2 -8 0 10 -262144
-1 -1 400 1;
#X obj 51 265 change;
#X obj 43 100 nbx 4 14 0 60 0 0 \$0-s1 \$0-s1-L empty 0 -8 0 9 -262144
-1 -1 2.42424 256;
#X obj 197 100 nbx 4 14 0 100 0 0 \$0-s1-db \$0-s1-db-L empty 0 -8
0 9 -262144 -1 -1 56 256;
#X obj 90 116 hsl 100 14 0 60 0 0 \$0_a empty empty -2 -8 0 10 -262144
-1 -1 700 1;
#X obj 51 281 change;
#X obj 43 116 nbx 4 14 0 60 0 0 \$0-s2 \$0-s2-L empty 0 -8 0 9 -262144
-1 -1 4.24242 256;
#X obj 197 116 nbx 4 14 0 100 0 0 \$0-s2-db \$0-s2-db-L empty 0 -8
0 9 -262144 -1 -1 41 256;
#N canvas 1049 494 781 544 levels 0;
#X obj 83 169 r \$0-a;
#X obj 65 214 f;
#X obj 123 215 f;
#X obj 141 168 r \$0-a-db;
#X obj 204 214 f;
#X obj 262 215 f;
#X obj 222 166 r \$0-d;
#X obj 280 167 r \$0-d-db;
#X obj 346 219 f;
#X obj 404 220 f;
#X obj 487 219 f;
#X obj 543 220 f;
#X obj 365 167 r \$0-s1;
#X obj 422 168 r \$0-s1-db;
#X obj 503 163 r \$0-s2;
#X obj 619 217 f;
#X obj 21 4 inlet;
#X obj 192 274 +;
#X obj 258 310 +;
#X obj 385 368 +;
#X obj 40 525 outlet;
#X obj 21 31 t b b;
#X obj 161 84 t b b b b b;
#X obj 39 463 pack f f f f f f f f f f f f f f, f 49;
#X msg 39 496 \$1 \$2 \, \$3 \$4 \$5 \, \$6 \$7 \$8 \, \$9 \$10 \$11
\, \$12 \$13 \$14;
#X obj 141 190 / 100;
#X text 172 64 times;
#X obj 83 190 * 1000;
#X obj 222 190 * 1000;
#X obj 281 190 / 100;
#X obj 363 193 * 1000;
#X obj 422 193 / 100;
#X obj 504 192 * 1000;
#X obj 563 192 / 100;
#X obj 563 164 r \$0-s2-db;
#X obj 637 187 * 1000;
#X msg 689 187 0;
#X obj 18 73 t b b b b b;
#X obj 639 165 r \$0-r;
#X text 284 32 volumes are 1-100 \, not in dB;
#X obj 481 400 +;
#X obj 534 459 line;
#X msg 534 437 0 \, 127 \$1;
#X obj 534 480 s \$0-pos;
#X connect 0 0 27 0;
#X connect 1 0 17 0;
#X connect 1 0 23 4;
#X connect 1 0 23 1;
#X connect 2 0 23 0;
#X connect 3 0 25 0;
#X connect 4 0 17 1;
#X connect 4 0 23 3;
#X connect 5 0 23 2;
#X connect 6 0 28 0;
#X connect 7 0 29 0;
#X connect 8 0 18 1;
#X connect 8 0 23 6;
#X connect 9 0 23 5;
#X connect 10 0 19 1;
#X connect 10 0 23 9;
#X connect 11 0 23 8;
#X connect 12 0 30 0;
#X connect 13 0 31 0;
#X connect 14 0 32 0;
#X connect 15 0 23 12;
#X connect 15 0 40 1;
#X connect 16 0 21 0;
#X connect 17 0 18 0;
#X connect 17 0 23 7;
#X connect 18 0 19 0;
#X connect 18 0 23 10;
#X connect 19 0 23 13;
#X connect 19 0 40 0;
#X connect 21 0 37 0;
#X connect 21 1 22 0;
#X connect 22 0 1 0;
#X connect 22 1 4 0;
#X connect 22 2 8 0;
#X connect 22 3 10 0;
#X connect 22 4 15 0;
#X connect 23 0 24 0;
#X connect 24 0 20 0;
#X connect 25 0 2 1;
#X connect 27 0 1 1;
#X connect 28 0 4 1;
#X connect 29 0 5 1;
#X connect 30 0 8 1;
#X connect 31 0 9 1;
#X connect 32 0 10 1;
#X connect 33 0 11 1;
#X connect 34 0 33 0;
#X connect 35 0 15 1;
#X connect 36 0 23 11;
#X connect 37 0 2 0;
#X connect 37 1 5 0;
#X connect 37 2 9 0;
#X connect 37 3 11 0;
#X connect 37 4 36 0;
#X connect 38 0 35 0;
#X connect 40 0 42 0;
#X connect 41 0 43 0;
#X connect 42 0 41 0;
#X restore 272 194 pd levels;
#X obj 272 74 route bang save load;
#X text 196 53 vol;
#X text 43 53 time (s);
#X obj 285 218 print adssr-debug;
#X obj 46 154 hsl 191 8 0 127 0 0 empty \$0-pos empty -2 -8 0 10 -77094
-1 -1 19000 1;
#X obj 46 166 hsl 191 8 1 100 0 0 empty \$0-vol empty -2 -8 0 10 -260274
-257985 -1 0 1;
#X obj 272 245 vline~;
#X obj 272 336 outlet~;
#X obj 301 280 env~ 16384;
#X obj 336 302 s \$0-vol;
#N canvas 133 602 712 416 saver 0;
#X obj 35 15 inlet;
#X text 78 16 save;
#X obj 56 96 r \$0-a;
#X obj 38 141 f;
#X obj 96 142 f;
#X obj 114 95 r \$0-a-db;
#X obj 177 141 f;
#X obj 235 142 f;
#X obj 195 93 r \$0-d;
#X obj 253 94 r \$0-d-db;
#X obj 319 146 f;
#X obj 377 147 f;
#X obj 460 146 f;
#X obj 516 147 f;
#X obj 338 94 r \$0-s1;
#X obj 395 95 r \$0-s1-db;
#X obj 476 90 r \$0-s2;
#X obj 592 144 f;
#X obj 536 91 r \$0-s2-db;
#X obj 612 92 r \$0-r;
#X obj 63 354 textfile;
#X msg 38 169 add \$1 \;;
#X msg 72 315 write \$1.txt;
#X msg 93 197 add \$1 \;;
#X msg 174 174 add \$1 \;;
#X msg 230 198 add \$1 \;;
#X msg 318 171 add \$1 \;;
#X msg 374 195 add \$1 \;;
#X msg 460 176 add \$1 \;;
#X msg 516 200 add \$1 \;;
#X msg 594 202 add \$1 \;;
#X obj 103 262 symbol;
#X obj 35 53 t a b b b b b b b b b b;
#X msg 210 329 clear;
#X connect 0 0 32 0;
#X connect 2 0 3 1;
#X connect 3 0 21 0;
#X connect 4 0 23 0;
#X connect 5 0 4 1;
#X connect 6 0 24 0;
#X connect 7 0 25 0;
#X connect 8 0 6 1;
#X connect 9 0 7 1;
#X connect 10 0 26 0;
#X connect 11 0 27 0;
#X connect 12 0 28 0;
#X connect 13 0 29 0;
#X connect 14 0 10 1;
#X connect 15 0 11 1;
#X connect 16 0 12 1;
#X connect 17 0 30 0;
#X connect 18 0 13 1;
#X connect 19 0 17 1;
#X connect 21 0 20 0;
#X connect 22 0 20 0;
#X connect 23 0 20 0;
#X connect 24 0 20 0;
#X connect 25 0 20 0;
#X connect 26 0 20 0;
#X connect 27 0 20 0;
#X connect 28 0 20 0;
#X connect 29 0 20 0;
#X connect 30 0 20 0;
#X connect 31 0 22 0;
#X connect 32 0 31 0;
#X connect 32 1 17 0;
#X connect 32 2 13 0;
#X connect 32 3 12 0;
#X connect 32 4 11 0;
#X connect 32 5 10 0;
#X connect 32 6 7 0;
#X connect 32 7 6 0;
#X connect 32 8 4 0;
#X connect 32 9 3 0;
#X connect 32 10 33 0;
#X connect 33 0 20 0;
#X restore 317 129 pd saver;
#N canvas 1181 549 515 434 load 0;
#X obj 29 16 inlet;
#X obj 97 207 textfile;
#X msg 140 117 read \$1.txt;
#X obj 35 103 until;
#X msg 36 80 9;
#X msg 64 128 rewind;
#X obj 173 204 f;
#X msg 188 176 0;
#X obj 205 204 + 1;
#X obj 35 157 t b b;
#X obj 113 245 pack f f;
#X obj 113 268 route 0 1 2 3 4 5 6 7 8;
#X obj 35 393 s \$0-a-L;
#X obj 51 371 s \$0-a-db-L;
#X obj 121 391 s \$0-d-L;
#X obj 136 370 s \$0-d-db-L;
#X obj 231 371 s \$0-s1-db-L;
#X obj 217 393 s \$0-s1-L;
#X obj 328 373 s \$0-s2-db-L;
#X obj 313 393 s \$0-s2-L;
#X obj 417 394 s \$0-r-L;
#X obj 140 94 symbol;
#X obj 36 53 t b b b a b;
#X msg 201 79 clear;
#X connect 0 0 22 0;
#X connect 1 0 10 1;
#X connect 2 0 1 0;
#X connect 3 0 9 0;
#X connect 4 0 3 0;
#X connect 5 0 1 0;
#X connect 6 0 8 0;
#X connect 6 0 10 0;
#X connect 7 0 6 1;
#X connect 8 0 6 1;
#X connect 9 0 6 0;
#X connect 9 1 1 0;
#X connect 10 0 11 0;
#X connect 11 0 12 0;
#X connect 11 1 13 0;
#X connect 11 2 14 0;
#X connect 11 3 15 0;
#X connect 11 4 17 0;
#X connect 11 5 16 0;
#X connect 11 6 19 0;
#X connect 11 7 18 0;
#X connect 11 8 20 0;
#X connect 21 0 2 0;
#X connect 22 0 4 0;
#X connect 22 1 5 0;
#X connect 22 2 7 0;
#X connect 22 3 21 0;
#X connect 22 4 23 0;
#X connect 23 0 1 0;
#X restore 363 100 pd load;
#X connect 0 0 29 0;
#X connect 8 0 9 0;
#X connect 9 0 8 0;
#X connect 9 0 10 0;
#X connect 10 0 9 0;
#X connect 12 0 13 0;
#X connect 13 0 12 0;
#X connect 13 0 14 0;
#X connect 14 0 13 0;
#X connect 16 0 17 0;
#X connect 17 0 16 0;
#X connect 17 0 18 0;
#X connect 18 0 17 0;
#X connect 20 0 21 0;
#X connect 21 0 20 0;
#X connect 21 0 22 0;
#X connect 22 0 21 0;
#X connect 24 0 25 0;
#X connect 25 0 24 0;
#X connect 25 0 26 0;
#X connect 26 0 25 0;
#X connect 28 0 32 0;
#X connect 28 0 35 0;
#X connect 29 0 28 0;
#X connect 29 1 39 0;
#X connect 29 2 40 0;
#X connect 35 0 36 0;
#X connect 35 0 37 0;
#X connect 37 0 38 0;
#X coords 0 -1 1 1 237 130 1 10 50;
