#N canvas 0 133 593 469 10;
#X symbolatom 145 136 15 0 0 0 - - -, f 15;
#X obj 51 395 *~;
#X obj 51 426 outlet~;
#X obj 344 235 adssr~;
#X obj 167 33 r floor\$1;
#X obj 167 60 t b b;
#X obj 257 60 t b b;
#X obj 50 105 bass_player~ \$1;
#X obj 214 169 loadbang;
#X obj 475 166 loadbang;
#X msg 89 198 save bass-floor;
#X msg 214 197 load bass-floor;
#X msg 350 195 save bass-door;
#X msg 475 194 load bass-door;
#X obj 86 234 adssr~;
#X obj 127 398 *~;
#X obj 127 429 outlet~;
#X obj 257 34 r xdoor\$1;
#X connect 1 0 2 0;
#X connect 3 0 1 1;
#X connect 3 0 15 1;
#X connect 4 0 5 0;
#X connect 5 0 14 0;
#X connect 5 1 7 0;
#X connect 6 0 3 0;
#X connect 6 0 14 0;
#X connect 6 1 7 0;
#X connect 7 0 1 0;
#X connect 7 1 15 0;
#X connect 7 2 0 0;
#X connect 8 0 11 0;
#X connect 9 0 13 0;
#X connect 10 0 14 0;
#X connect 11 0 14 0;
#X connect 12 0 3 0;
#X connect 13 0 3 0;
#X connect 14 0 1 1;
#X connect 14 0 15 1;
#X connect 15 0 16 0;
#X connect 17 0 6 0;
