#N canvas 248 281 718 337 10;
#X obj 13 169 bass~ \$1;
#X obj 105 170 lowmids~ \$1;
#X obj 223 170 highs~ \$1;
#X obj 328 173 highmids~ \$1;
#X obj 466 176 plucks~ \$1;
#X obj 89 294 outlet~ l;
#X obj 348 294 outlet~ r;
#X obj 14 207 *~ 1;
#X obj 65 209 *~ 1;
#X obj 104 209 *~ 1;
#X obj 178 208 *~ 1;
#X obj 222 208 *~ 1;
#X obj 284 209 *~ 1;
#X obj 327 209 *~ 1;
#X obj 408 209 *~ 1;
#X obj 465 208 *~ 1;
#X obj 534 207 *~ 1;
#X obj 314 14 r door\$1;
#X obj 123 4 r floor\$1;
#X obj 123 70 delay 17000;
#X obj 123 26 t b b;
#X obj 314 76 spigot;
#X obj 314 104 s xdoor\$1;
#X msg 215 43 0;
#X msg 123 94 1;
#X floatatom 389 45 5 0 0 0 - - -, f 5;
#X text 84 127 door signals are only used when more than 17 secs have
passed from floor;
#X connect 0 0 7 0;
#X connect 0 1 8 0;
#X connect 1 0 9 0;
#X connect 1 1 10 0;
#X connect 2 0 11 0;
#X connect 2 1 12 0;
#X connect 3 0 13 0;
#X connect 3 1 14 0;
#X connect 4 0 15 0;
#X connect 4 1 16 0;
#X connect 7 0 5 0;
#X connect 8 0 6 0;
#X connect 9 0 5 0;
#X connect 10 0 6 0;
#X connect 11 0 5 0;
#X connect 12 0 6 0;
#X connect 13 0 5 0;
#X connect 14 0 6 0;
#X connect 15 0 5 0;
#X connect 16 0 6 0;
#X connect 17 0 21 0;
#X connect 18 0 20 0;
#X connect 19 0 24 0;
#X connect 20 0 19 0;
#X connect 20 1 23 0;
#X connect 21 0 22 0;
#X connect 23 0 25 0;
#X connect 24 0 25 0;
#X connect 25 0 21 1;
