#N canvas 924 483 594 301 10;
#X obj 45 85 hatchery;
#X obj 155 67 soundfiler;
#N canvas 0 50 450 250 (subpatch) 0;
#X array egg 213120 float 2;
#X coords 0 1 213120 -1 200 140 1;
#X restore 290 108 graph;
#X obj 153 21 loadbang;
#X obj 44 220 outlet~;
#X obj 45 171 tabplay~ egg;
#X obj 45 27 inlet;
#X msg 155 44 read -resize windows_xp_startup_sound.wav egg;
#X obj 45 118 t b b;
#X obj 140 222 outlet;
#X msg 156 119 \; egg normalize;
#X msg 156 92 bang;
#X connect 0 0 8 0;
#X connect 1 0 11 0;
#X connect 3 0 7 0;
#X connect 5 0 4 0;
#X connect 6 0 0 0;
#X connect 7 0 1 0;
#X connect 8 0 5 0;
#X connect 8 1 9 0;
#X connect 11 0 10 0;
