#N canvas 990 364 450 300 10;
#X obj 164 134 hsl 128 15 0 127 0 0 empty empty empty -2 -8 0 10 -262144
-1 -1 6400 1;
#X obj 160 161 jrange 0 128 0 2000;
#X text 172 115 overlap 0 to 2 sec;
#X obj 138 189 elooper~;
#X obj 161 80 64;
#X msg 64 70 start;
#X obj 138 221 *~ 0.5;
#X obj 225 191 hsl 128 15 0 1 0 0 empty empty empty -2 -8 0 10 -262144
-1 -1 0 1;
#X obj 138 267 outlet~;
#X obj 63 31 t b b;
#X obj 280 11 inlet tablename;
#X obj 63 2 inlet start;
#X connect 0 0 1 0;
#X connect 1 0 3 1;
#X connect 3 0 6 0;
#X connect 4 0 0 0;
#X connect 5 0 3 0;
#X connect 6 0 8 0;
#X connect 7 0 6 1;
#X connect 9 0 5 0;
#X connect 9 1 4 0;
#X connect 10 0 3 2;
#X connect 11 0 9 0;
