#N canvas 137 50 856 669 10;
#X obj 53 488 outlet~;
#X text 39 8 enveloping looper;
#X obj 56 99 inlet;
#X obj 53 423 *~;
#X obj 144 147 s \$0_stop;
#X obj 249 429 *~;
#X obj 53 232 r \$0_1play;
#X obj 302 379 bng 15 250 50 0 empty empty empty 17 7 0 10 -262144
-1 -1;
#X obj 106 381 bng 15 250 50 0 empty empty empty 17 7 0 10 -262144
-1 -1;
#X obj 77 399 r~ \$0_mix1;
#X obj 268 400 r~ \$0_mix2;
#X obj 249 233 r \$0_2play;
#X obj 55 150 s \$0_play;
#N canvas 831 235 456 441 mix 0;
#X obj 62 347 vline~;
#X msg 105 323 0 \$1;
#X obj 105 302 r \$0_1down;
#X obj 61 200 r \$0_1up;
#X obj 192 350 vline~;
#X msg 235 326 0 \$1;
#X obj 191 199 r \$0_2up;
#X obj 235 305 r \$0_2down;
#X obj 192 378 s~ \$0_mix2;
#X obj 63 379 s~ \$0_mix1;
#X msg 62 280 0 \, 1 \$1;
#X msg 192 279 0 \, 1 \$1;
#X obj 55 54 r \$0_1play;
#X obj 54 148 s \$0_1up;
#X obj 64 169 s \$0_2down;
#X obj 188 54 r \$0_2play;
#X obj 187 148 s \$0_2up;
#X obj 196 169 s \$0_1down;
#X msg 56 79 bang;
#X msg 188 78 bang;
#X obj 231 79 bng 15 250 50 0 empty empty empty 17 7 0 10 -262144 -1
-1;
#X obj 97 81 bng 15 250 50 0 empty empty empty 17 7 0 10 -262144 -1
-1;
#X obj 146 14 inlet;
#X floatatom 217 125 5 0 0 0 - - -, f 5;
#X floatatom 80 124 5 0 0 0 - - -, f 5;
#X obj 58 104 f;
#X obj 190 102 f;
#X connect 0 0 9 0;
#X connect 1 0 0 0;
#X connect 2 0 1 0;
#X connect 3 0 10 0;
#X connect 4 0 8 0;
#X connect 5 0 4 0;
#X connect 6 0 11 0;
#X connect 7 0 5 0;
#X connect 10 0 0 0;
#X connect 11 0 4 0;
#X connect 12 0 18 0;
#X connect 12 0 21 0;
#X connect 15 0 19 0;
#X connect 15 0 20 0;
#X connect 18 0 25 0;
#X connect 19 0 26 0;
#X connect 22 0 25 1;
#X connect 22 0 26 1;
#X connect 25 0 13 0;
#X connect 25 0 14 0;
#X connect 25 0 24 0;
#X connect 26 0 16 0;
#X connect 26 0 17 0;
#X connect 26 0 23 0;
#X restore 359 55 pd mix;
#X obj 66 257 bng 15 250 50 0 empty empty empty 17 7 0 10 -262144 -1
-1;
#X obj 268 261 bng 15 250 50 0 empty empty empty 17 7 0 10 -262144
-1 -1;
#X obj 359 23 inlet;
#X obj 428 22 inlet;
#N canvas 173 67 400 562 table 1;
#X obj 54 209 r \$0_play;
#X obj 28 159 r \$0_stop;
#X msg 27 182 stop;
#X floatatom 72 381 5 0 0 0 - - -, f 5;
#X obj 26 284 bng 15 250 50 0 empty empty empty 17 7 0 10 -262144 -1
-1;
#X obj 55 356 f;
#X obj 89 356 + 1;
#X obj 56 405 % 2;
#X obj 52 459 bng 15 250 50 0 empty empty empty 17 7 0 10 -262144 -1
-1;
#X obj 86 459 bng 15 250 50 0 empty empty empty 17 7 0 10 -262144 -1
-1;
#X obj 52 497 s \$0_1play;
#X obj 144 498 s \$0_2play;
#X obj 54 431 route 0 1;
#X obj 124 0 inlet;
#X msg 54 231 1;
#X obj 127 141 / 44.1;
#X obj 127 118 expr size("$s1");
#X obj 213 171 s \$0_tlen;
#X obj 127 24 symbol;
#X obj 200 198 r \$0_overlap;
#X obj 201 224 t b f;
#X obj 152 199 f;
#X obj 120 165 t b f;
#X floatatom 170 274 15 0 0 0 - - -, f 15;
#X obj 152 230 - 0;
#X obj 54 262 metro 1000;
#X obj 193 181;
#X msg 127 53 symbol \$1_L;
#X connect 0 0 14 0;
#X connect 1 0 2 0;
#X connect 2 0 25 0;
#X connect 5 0 3 0;
#X connect 5 0 6 0;
#X connect 5 0 7 0;
#X connect 6 0 5 1;
#X connect 7 0 12 0;
#X connect 12 0 8 0;
#X connect 12 0 10 0;
#X connect 12 1 9 0;
#X connect 12 1 11 0;
#X connect 13 0 18 0;
#X connect 14 0 25 0;
#X connect 15 0 17 0;
#X connect 15 0 22 0;
#X connect 16 0 15 0;
#X connect 18 0 27 0;
#X connect 19 0 20 0;
#X connect 20 0 21 0;
#X connect 20 1 24 1;
#X connect 21 0 24 0;
#X connect 22 0 21 0;
#X connect 22 1 21 1;
#X connect 24 0 23 0;
#X connect 24 0 25 1;
#X connect 25 0 4 0;
#X connect 25 0 5 0;
#X connect 27 0 16 0;
#X restore 428 92 pd table;
#X text 41 25 left inlet: bang/stop;
#X text 46 41 middle inlet: overlap length (ms);
#X text 48 59 right inlet: table name;
#X obj 53 359 tabplay~;
#X obj 249 357 tabplay~;
#X obj 444 58 s \$0_tname;
#X obj 148 258 symbol;
#X obj 327 91 s \$0_overlap;
#X obj 151 231 symbol;
#X obj 353 250 symbol;
#X obj 357 195 r \$0_tname;
#X obj 356 223 symbol;
#X obj 210 176 s \$0_play;
#X obj 275 176 s \$0_stop;
#X obj 224 146 t b b;
#X symbolatom 169 501 25 0 0 0 - - -, f 25;
#X symbolatom 168 482 25 0 0 0 - - -, f 25;
#X obj 53 318 spigot;
#X obj 103 318 r \$0_enabler;
#X obj 449 130 loadbang;
#X msg 450 152 1;
#X obj 249 318 spigot;
#X obj 299 318 r \$0_enabler;
#X obj 55 122 route bang start stop mute oneshot enable disable;
#N canvas 1421 119 307 201 disenable 0;
#X obj 29 19 inlet;
#X msg 29 100 1;
#X obj 29 148 s \$0_enabler;
#X msg 69 100 0;
#X obj 40 78 bng 15 250 50 0 empty empty empty 17 7 0 10 -262144 -1
-1;
#X obj 105 79 bng 15 250 50 0 empty empty empty 17 7 0 10 -262144 -1
-1;
#X obj 104 19 inlet;
#X connect 0 0 1 0;
#X connect 0 0 4 0;
#X connect 1 0 2 0;
#X connect 3 0 2 0;
#X connect 6 0 3 0;
#X connect 6 0 5 0;
#X restore 293 146 pd disenable;
#X obj 448 175 s \$0_enabler;
#X obj 105 338 tgl 15 0 empty empty empty 17 7 0 10 -262144 -1 -1 1
1;
#X obj 309 340 tgl 15 0 empty empty empty 17 7 0 10 -262144 -1 -1 1
1;
#X obj 458 482 outlet~;
#X obj 458 417 *~;
#X obj 654 423 *~;
#X obj 458 226 r \$0_1play;
#X obj 707 373 bng 15 250 50 0 empty empty empty 17 7 0 10 -262144
-1 -1;
#X obj 511 375 bng 15 250 50 0 empty empty empty 17 7 0 10 -262144
-1 -1;
#X obj 482 393 r~ \$0_mix1;
#X obj 673 394 r~ \$0_mix2;
#X obj 654 227 r \$0_2play;
#X obj 471 251 bng 15 250 50 0 empty empty empty 17 7 0 10 -262144
-1 -1;
#X obj 673 255 bng 15 250 50 0 empty empty empty 17 7 0 10 -262144
-1 -1;
#X obj 458 353 tabplay~;
#X obj 654 351 tabplay~;
#X obj 553 252 symbol;
#X obj 557 197 r \$0_tname;
#X obj 556 225 symbol;
#X obj 758 244 symbol;
#X obj 762 189 r \$0_tname;
#X obj 761 217 symbol;
#X symbolatom 574 495 25 0 0 0 - - -, f 25;
#X symbolatom 573 476 25 0 0 0 - - -, f 25;
#X obj 458 312 spigot;
#X obj 508 312 r \$0_enabler;
#X obj 654 312 spigot;
#X obj 704 312 r \$0_enabler;
#X obj 510 332 tgl 15 0 empty empty empty 17 7 0 10 -262144 -1 -1 1
1;
#X obj 714 334 tgl 15 0 empty empty empty 17 7 0 10 -262144 -1 -1 1
1;
#X obj 152 203 r \$0_tname;
#X msg 125 281 set \$1_L;
#X msg 330 273 set \$1_L;
#X msg 531 275 set \$1_R;
#X msg 735 267 set \$1_R;
#X connect 2 0 42 0;
#X connect 3 0 0 0;
#X connect 5 0 0 0;
#X connect 6 0 14 0;
#X connect 6 0 25 0;
#X connect 6 0 36 0;
#X connect 9 0 3 1;
#X connect 10 0 5 1;
#X connect 11 0 15 0;
#X connect 11 0 28 0;
#X connect 11 0 40 0;
#X connect 16 0 13 0;
#X connect 16 0 26 0;
#X connect 17 0 24 0;
#X connect 17 0 18 0;
#X connect 22 0 3 0;
#X connect 22 1 8 0;
#X connect 23 0 5 0;
#X connect 23 1 7 0;
#X connect 25 0 75 0;
#X connect 25 0 35 0;
#X connect 27 0 25 1;
#X connect 28 0 76 0;
#X connect 28 0 34 0;
#X connect 29 0 30 0;
#X connect 30 0 28 1;
#X connect 33 0 32 0;
#X connect 33 1 31 0;
#X connect 36 0 22 0;
#X connect 37 0 36 1;
#X connect 37 0 45 0;
#X connect 38 0 39 0;
#X connect 39 0 44 0;
#X connect 40 0 23 0;
#X connect 41 0 40 1;
#X connect 41 0 46 0;
#X connect 42 0 12 0;
#X connect 42 1 12 0;
#X connect 42 2 4 0;
#X connect 42 4 33 0;
#X connect 42 5 43 0;
#X connect 42 6 43 1;
#X connect 48 0 47 0;
#X connect 49 0 47 0;
#X connect 50 0 56 0;
#X connect 50 0 60 0;
#X connect 50 0 68 0;
#X connect 53 0 48 1;
#X connect 54 0 49 1;
#X connect 55 0 57 0;
#X connect 55 0 63 0;
#X connect 55 0 70 0;
#X connect 58 0 48 0;
#X connect 58 1 52 0;
#X connect 59 0 49 0;
#X connect 59 1 51 0;
#X connect 60 0 77 0;
#X connect 60 0 67 0;
#X connect 61 0 62 0;
#X connect 62 0 60 1;
#X connect 63 0 78 0;
#X connect 63 0 66 0;
#X connect 64 0 65 0;
#X connect 65 0 63 1;
#X connect 68 0 58 0;
#X connect 69 0 68 1;
#X connect 69 0 72 0;
#X connect 70 0 59 0;
#X connect 71 0 70 1;
#X connect 71 0 73 0;
#X connect 74 0 27 0;
#X connect 75 0 22 0;
#X connect 76 0 23 0;
#X connect 77 0 58 0;
#X connect 78 0 59 0;
