#N canvas 207 106 895 560 10;
#X symbolatom 139 106 15 0 0 0 - - -, f 15;
#X obj 52 200 adssr~;
#X obj 17 361 *~;
#X obj 17 392 outlet~;
#X obj 310 201 adssr~;
#X obj 16 1 inlet start;
#X obj 133 -1 r floor\$1;
#X obj 133 26 t b b;
#X obj 223 0 r door\$1;
#X obj 223 26 t b b;
#X obj 16 71 highs_player~ \$1;
#X obj 215 133 loadbang;
#X msg 90 162 save highs-floor;
#X msg 215 161 load highs-floor;
#X obj 476 130 loadbang;
#X msg 351 159 save highs-floor;
#X msg 476 158 load highs-floor;
#X connect 1 0 2 1;
#X connect 2 0 3 0;
#X connect 4 0 2 1;
#X connect 5 0 10 0;
#X connect 6 0 7 0;
#X connect 7 0 1 0;
#X connect 7 1 10 1;
#X connect 8 0 9 0;
#X connect 9 0 1 0;
#X connect 9 0 4 0;
#X connect 9 1 10 1;
#X connect 10 0 2 0;
#X connect 10 1 0 0;
#X connect 11 0 13 0;
#X connect 12 0 1 0;
#X connect 13 0 1 0;
#X connect 14 0 16 0;
#X connect 15 0 4 0;
#X connect 16 0 4 0;
