#N canvas 240 82 745 541 10;
#X symbolatom 139 106 15 0 0 0 - - -, f 15;
#X obj 52 200 adssr~;
#X obj 17 361 *~;
#X obj 17 392 outlet~;
#X obj 310 201 adssr~;
#X obj 133 -1 r floor\$1;
#X obj 133 26 t b b;
#X obj 223 26 t b b;
#X obj 16 71 highmids_player~ \$1;
#X obj 187 137 loadbang;
#X obj 448 134 loadbang;
#X msg 40 165 save highmids-floor;
#X msg 187 165 load highmids-floor;
#X msg 338 165 save highmids-door;
#X msg 477 165 load highmids-door;
#X obj 85 363 *~;
#X obj 85 394 outlet~;
#X obj 223 0 r xdoor\$1;
#X connect 1 0 2 1;
#X connect 1 0 15 1;
#X connect 2 0 3 0;
#X connect 4 0 2 1;
#X connect 4 0 15 1;
#X connect 5 0 6 0;
#X connect 6 0 1 0;
#X connect 6 1 8 0;
#X connect 7 0 1 0;
#X connect 7 0 4 0;
#X connect 7 1 8 0;
#X connect 8 0 2 0;
#X connect 8 1 15 0;
#X connect 8 2 0 0;
#X connect 9 0 12 0;
#X connect 10 0 14 0;
#X connect 11 0 1 0;
#X connect 12 0 1 0;
#X connect 13 0 4 0;
#X connect 14 0 4 0;
#X connect 15 0 16 0;
#X connect 17 0 7 0;
