#N canvas 240 50 450 300 10;
#X obj 79 110 elevator-looper~;
#X obj 79 74 bng 15 250 50 0 empty empty empty 17 7 0 10 -262144 -1
-1;
#X obj 79 -37 inlet start;
#X msg 279 134 car_\$1_highmids\$2, f 15;
#X obj 279 33 f \$1;
#X obj 279 108 pack f f;
#X obj 331 36 f;
#X obj 364 36 + 1;
#X obj 279 -15 bng 15 250 50 0 empty empty empty 17 7 0 10 -262144
-1 -1;
#X obj 332 83 + 1;
#X obj 279 3 t b b;
#X obj 279 185 symbol;
#X obj 279 216 outlet current_table;
#X obj 332 60 mod 4;
#X obj 78 214 outlet~;
#X obj 279 -36 inlet floor_trigger;
#X connect 0 0 14 0;
#X connect 1 0 0 0;
#X connect 2 0 1 0;
#X connect 3 0 0 1;
#X connect 3 0 11 0;
#X connect 4 0 5 0;
#X connect 5 0 3 0;
#X connect 6 0 7 0;
#X connect 6 0 13 0;
#X connect 7 0 6 1;
#X connect 8 0 10 0;
#X connect 9 0 5 1;
#X connect 10 0 4 0;
#X connect 10 1 6 0;
#X connect 11 0 12 0;
#X connect 13 0 9 0;
#X connect 15 0 8 0;
