#N canvas 228 50 568 617 10;
#X symbolatom 139 106 15 0 0 0 - - -, f 15;
#X obj 17 361 *~;
#X obj 17 392 outlet~;
#X obj 310 201 adssr~;
#X obj 133 -1 r floor\$1;
#X obj 133 26 t b b;
#X obj 223 26 t b b;
#X obj 16 71 lowmids_player~ \$1;
#X obj 359 51 print from floor\$1;
#X obj 184 142 loadbang;
#X obj 445 139 loadbang;
#X msg 45 170 save lowmids-floor;
#X msg 321 168 save lowmids-door;
#X msg 460 168 load lowmids-door;
#X msg 184 170 load lowmids-floor;
#X obj 52 200 adssr~;
#X obj 280 412 / 8;
#X floatatom 280 435 5 0 0 0 - - -, f 5;
#X obj 280 457 * 5;
#X floatatom 280 481 5 0 0 0 - - -, f 5;
#X msg 280 387 25;
#X obj 99 362 *~;
#X obj 99 393 outlet~;
#X obj 223 0 r xdoor\$1;
#X connect 1 0 2 0;
#X connect 3 0 1 1;
#X connect 3 0 21 1;
#X connect 4 0 5 0;
#X connect 4 0 8 0;
#X connect 5 0 15 0;
#X connect 5 1 7 0;
#X connect 6 0 3 0;
#X connect 6 0 15 0;
#X connect 6 1 7 0;
#X connect 7 0 1 0;
#X connect 7 1 21 0;
#X connect 7 2 0 0;
#X connect 9 0 14 0;
#X connect 10 0 13 0;
#X connect 11 0 15 0;
#X connect 12 0 3 0;
#X connect 13 0 3 0;
#X connect 14 0 15 0;
#X connect 15 0 1 1;
#X connect 15 0 21 1;
#X connect 16 0 17 0;
#X connect 17 0 18 0;
#X connect 18 0 19 0;
#X connect 20 0 16 0;
#X connect 21 0 22 0;
#X connect 23 0 6 0;
