#N canvas 223 143 648 725 10;
#X symbolatom 139 106 15 0 0 0 - - -, f 15;
#X obj 52 200 adssr~;
#X obj 17 361 *~;
#X obj 17 392 outlet~;
#X obj 310 201 adssr~;
#X obj 16 1 inlet start;
#X obj 133 -1 r floor\$1;
#X obj 133 26 t b b;
#X obj 223 0 r door\$1;
#X obj 223 26 t b b;
#X obj 16 71 lowmids_player~ \$1;
#X obj 359 51 print from floor\$1;
#X connect 1 0 2 1;
#X connect 2 0 3 0;
#X connect 4 0 2 1;
#X connect 5 0 10 0;
#X connect 6 0 7 0;
#X connect 6 0 11 0;
#X connect 7 0 1 0;
#X connect 7 1 10 1;
#X connect 8 0 9 0;
#X connect 9 0 1 0;
#X connect 9 0 4 0;
#X connect 9 1 10 1;
#X connect 10 0 2 0;
#X connect 10 1 0 0;
