#N canvas 145 89 856 669 10;
#X obj 53 488 outlet~;
#X obj 56 99 inlet;
#X obj 106 381 bng 15 250 50 0 empty empty empty 17 7 0 10 -262144
-1 -1;
#X obj 55 150 s \$0_play;
#X obj 66 257 bng 15 250 50 0 empty empty empty 17 7 0 10 -262144 -1
-1;
#X obj 428 22 inlet;
#X text 41 25 left inlet: bang/stop;
#X text 46 41 middle inlet: overlap length (ms);
#X text 48 59 right inlet: table name;
#X obj 53 359 tabplay~;
#X obj 444 58 s \$0_tname;
#X obj 148 258 symbol;
#X obj 151 231 symbol;
#X obj 55 122 route bang start stop mute oneshot enable disable;
#X obj 458 482 outlet~;
#X obj 511 375 bng 15 250 50 0 empty empty empty 17 7 0 10 -262144
-1 -1;
#X obj 471 251 bng 15 250 50 0 empty empty empty 17 7 0 10 -262144
-1 -1;
#X obj 458 353 tabplay~;
#X obj 553 252 symbol;
#X obj 557 197 r \$0_tname;
#X obj 556 225 symbol;
#X obj 152 203 r \$0_tname;
#X msg 122 293 set \$1_L;
#X msg 532 288 set \$1_R;
#X obj 53 232 r \$0_play;
#X obj 458 226 r \$0_play;
#X text 39 8 enveloping nonlooper;
#X obj 511 403 s \$0_stop;
#X msg 170 487 car_1_bass_L;
#X msg 635 482 car_1_bass_R;
#X obj 53 423 *~ 1;
#X obj 458 417 *~ 1;
#X connect 1 0 13 0;
#X connect 4 0 9 0;
#X connect 5 0 10 0;
#X connect 9 0 30 0;
#X connect 9 1 2 0;
#X connect 11 0 22 0;
#X connect 12 0 11 1;
#X connect 13 0 3 0;
#X connect 13 1 3 0;
#X connect 15 0 27 0;
#X connect 16 0 17 0;
#X connect 17 0 31 0;
#X connect 17 1 15 0;
#X connect 18 0 23 0;
#X connect 19 0 20 0;
#X connect 20 0 18 1;
#X connect 21 0 12 0;
#X connect 22 0 9 0;
#X connect 22 0 28 0;
#X connect 23 0 17 0;
#X connect 23 0 29 0;
#X connect 24 0 4 0;
#X connect 24 0 11 0;
#X connect 25 0 16 0;
#X connect 25 0 18 0;
#X connect 30 0 0 0;
#X connect 31 0 14 0;
