#N canvas 265 242 450 300 10;
#X obj 44 30 udpreceive 7000;
#X obj 44 61 unpackOSC;
#X obj 44 87 routeOSC /ontrak;
#X floatatom 45 126 5 0 0 0 - - -, f 5;
#X obj 45 185 outlet;
#X obj 97 125 send ontrak;
#X obj 229 59 import mrpeach;
#X text 44 5 turns OSC over UDP into a send for 'ontrak';
#X connect 0 0 1 0;
#X connect 1 0 2 0;
#X connect 2 0 3 0;
#X connect 2 0 5 0;
#X connect 3 0 4 0;
