#N canvas 487 24 450 300 10;
#X floatatom 45 166 5 0 0 0 - - -, f 5;
#X obj 45 225 outlet;
#X obj 97 165 send ontrak;
#X text 44 5 turns OSC over UDP into a send for 'ontrak';
#X obj 66 31 netreceive -u -b 7000;
#X obj 66 59 oscparse;
#X obj 66 129 route ontrak;
#X obj 66 95 list trim;
#X connect 0 0 1 0;
#X connect 4 0 5 0;
#X connect 5 0 7 0;
#X connect 6 0 2 0;
#X connect 6 0 0 0;
#X connect 7 0 6 0;
