#N canvas 301 137 410 496 10;
#X obj 111 88 bng 15 250 50 0 empty empty empty 17 7 0 10 -262144 -1
-1;
#X floatatom 127 150 5 0 0 0 - - -, f 5;
#X obj 113 122 random 3;
#X obj 113 178 select 0;
#X obj 113 209 random 2;
#X obj 209 44 loadbang;
#X obj 44 429 outlet~;
#X obj 113 259 pack f f;
#X obj 209 78 \$1;
#X obj 113 233 + 1;
#X msg 113 282 car_\$2_plucks\$1, f 16;
#X obj 146 310 print playing plucks;
#X obj 318 430 outlet;
#X obj 146 431 outlet~;
#X obj 221 374 symbol;
#X obj 44 381 elevator-nonlooper~;
#X obj 73 326 t b a;
#X obj 109 27 inlet;
#X connect 0 0 2 0;
#X connect 2 0 1 0;
#X connect 2 0 3 0;
#X connect 3 0 4 0;
#X connect 4 0 9 0;
#X connect 5 0 8 0;
#X connect 7 0 10 0;
#X connect 8 0 7 1;
#X connect 9 0 7 0;
#X connect 10 0 11 0;
#X connect 10 0 14 0;
#X connect 10 0 16 0;
#X connect 14 0 12 0;
#X connect 15 0 6 0;
#X connect 15 1 13 0;
#X connect 16 0 15 0;
#X connect 16 1 15 1;
#X connect 17 0 0 0;
