#N canvas 70 157 410 496 10;
#X obj 75 20 inlet;
#X msg 75 47 bang;
#X obj 76 69 bng 15 250 50 0 empty empty empty 17 7 0 10 -262144 -1
-1;
#X floatatom 88 120 5 0 0 0 - - -, f 5;
#X obj 74 92 random 3;
#X obj 74 148 select 0;
#X obj 74 179 random 2;
#X obj 209 44 loadbang;
#X obj 44 429 outlet~;
#X obj 114 259 pack f f;
#X obj 209 78 \$1;
#X obj 76 203 + 1;
#X obj 44 381 elevator-looper~;
#X msg 114 282 car_\$2_plucks\$1, f 16;
#X obj 146 310 print playing plucks;
#X obj 109 429 outlet;
#X obj 21 18 inlet;
#X obj 66 231 t b f;
#X connect 0 0 1 0;
#X connect 1 0 2 0;
#X connect 2 0 4 0;
#X connect 4 0 3 0;
#X connect 4 0 5 0;
#X connect 5 0 6 0;
#X connect 6 0 11 0;
#X connect 7 0 10 0;
#X connect 9 0 13 0;
#X connect 10 0 9 1;
#X connect 11 0 17 0;
#X connect 12 0 8 0;
#X connect 13 0 12 1;
#X connect 13 0 14 0;
#X connect 16 0 12 0;
#X connect 17 0 15 0;
#X connect 17 1 9 0;
