#N canvas 534 420 534 452 10;
#X obj 31 25 inlet;
#X obj 31 175 change;
#X obj 31 124 & 1;
#X text 97 18 converts the byte coming from ontrak device;
#X obj 137 173 change;
#X obj 137 122 & 2;
#X obj 243 174 change;
#X obj 349 175 change;
#X obj 31 93 t f f f f f, f 61;
#X obj 49 267 t f f f f, f 49;
#X obj 243 123 & 4;
#X obj 349 124 & 8;
#X obj 49 357 change;
#X obj 162 355 change;
#X obj 275 356 change;
#X obj 389 357 change;
#X obj 49 303 & 16;
#X obj 162 301 & 32;
#X obj 275 302 & 64;
#X obj 389 303 & 128;
#X text 97 35 into car sends (door1 \, floor1 \, etc);
#X obj 30 223 print door1;
#X obj 137 223 print door2;
#X obj 244 223 print door3;
#X obj 349 223 print door4;
#X obj 277 405 print floor3;
#X obj 164 405 print floor2;
#X obj 48 405 print floor1;
#X obj 389 405 print floor4;
#X obj 389 382 s floor4;
#X obj 49 382 s floor1;
#X obj 162 379 s floor2;
#X obj 275 381 s floor3;
#X obj 31 200 s door1;
#X obj 137 198 s door2;
#X obj 242 199 s door3;
#X obj 349 200 s door4;
#X obj 349 150 == 8;
#X obj 243 149 == 4;
#X obj 137 148 == 2;
#X obj 31 149 == 1;
#X obj 49 329 == 16;
#X obj 162 327 == 32;
#X obj 275 327 == 64;
#X obj 389 327 == 128;
#X connect 0 0 8 0;
#X connect 1 0 21 0;
#X connect 1 0 33 0;
#X connect 2 0 40 0;
#X connect 4 0 22 0;
#X connect 4 0 34 0;
#X connect 5 0 39 0;
#X connect 6 0 23 0;
#X connect 6 0 35 0;
#X connect 7 0 24 0;
#X connect 7 0 36 0;
#X connect 8 0 2 0;
#X connect 8 1 5 0;
#X connect 8 2 10 0;
#X connect 8 3 11 0;
#X connect 8 4 9 0;
#X connect 9 0 16 0;
#X connect 9 1 17 0;
#X connect 9 2 18 0;
#X connect 9 3 19 0;
#X connect 10 0 38 0;
#X connect 11 0 37 0;
#X connect 12 0 27 0;
#X connect 12 0 30 0;
#X connect 13 0 26 0;
#X connect 13 0 31 0;
#X connect 14 0 25 0;
#X connect 14 0 32 0;
#X connect 15 0 28 0;
#X connect 15 0 29 0;
#X connect 16 0 41 0;
#X connect 17 0 42 0;
#X connect 18 0 43 0;
#X connect 19 0 44 0;
#X connect 37 0 7 0;
#X connect 38 0 6 0;
#X connect 39 0 4 0;
#X connect 40 0 1 0;
#X connect 41 0 12 0;
#X connect 42 0 13 0;
#X connect 43 0 14 0;
#X connect 44 0 15 0;
