#N canvas 639 146 364 354 10;
#X obj 78 29 inlet;
#X obj 201 28 inlet;
#X text 86 46 door;
#X text 204 47 floor;
#X obj 13 181 hsl 55 100 0 127 0 0 empty empty empty -2 -8 0 10 -128992
-128992 -1 0 1;
#X obj 66 181 hsl 2 100 127 0 0 0 empty \$0-rdgui empty -2 -8 0 10
-228856 -228856 -1 0 1;
#X obj 13 181 hsl 2 100 0 127 0 0 empty \$0-ldgui empty -2 -8 0 10
-228856 -228856 -1 0 1;
#X obj 13 171 hsl 55 8 0 127 0 0 empty \$0-floor empty -2 -8 0 10 -2178
-86277 -86277 0 1;
#N canvas 6 68 539 463 door-animate 0;
#X obj 29 18 inlet;
#X obj 24 230 line;
#X text 111 177 open;
#X text 144 201 close;
#X msg 24 178 25 \, 1 1000;
#X msg 57 202 1 \, 25 1000;
#X msg 26 340 \; \$1-ldgui size \$2 100;
#X obj 26 319 pack f f;
#X obj 26 298 \$0;
#X obj 26 278 t b f;
#X obj 180 336 pack f f;
#X obj 180 315 \$0;
#X msg 180 361 \; \$1-rdgui size \$2 100;
#X obj 320 311 \$0;
#X obj 320 332 pack f f;
#X obj 184 268 t b f;
#X obj 324 257 line;
#X text 411 204 open;
#X text 444 228 close;
#X obj 320 285 t b f;
#X msg 335 361 \; \$1-rdgui pos \$2 181;
#X msg 357 229 67 \, 43 1000;
#X msg 324 206 43 \, 66 1000;
#X obj 28 50 select 0 1;
#X connect 0 0 23 0;
#X connect 1 0 9 0;
#X connect 1 0 15 0;
#X connect 4 0 1 0;
#X connect 5 0 1 0;
#X connect 5 0 1 0;
#X connect 7 0 6 0;
#X connect 8 0 7 0;
#X connect 9 0 8 0;
#X connect 9 1 7 1;
#X connect 10 0 12 0;
#X connect 11 0 10 0;
#X connect 13 0 14 0;
#X connect 14 0 20 0;
#X connect 15 0 11 0;
#X connect 15 1 10 1;
#X connect 16 0 19 0;
#X connect 19 0 13 0;
#X connect 19 1 14 1;
#X connect 21 0 16 0;
#X connect 21 0 16 0;
#X connect 22 0 16 0;
#X connect 23 0 4 0;
#X connect 23 0 22 0;
#X connect 23 1 5 0;
#X connect 23 1 21 0;
#X restore 78 70 pd door-animate;
#N canvas 1093 509 424 417 floor-animate 0;
#X obj 32 11 inlet;
#X obj 49 290 \$0;
#N canvas 275 340 427 386 RGB_____________ 0;
#X obj 40 51 inlet;
#X obj 109 50 inlet;
#X obj 186 52 inlet;
#X obj 252 53 inlet;
#X obj 108 315 outlet;
#X text 36 28 select;
#X text 114 25 red;
#X text 184 27 green;
#X text 256 27 blue;
#X obj 252 99 t b f;
#X obj 186 157 +;
#X obj 186 182 t b f;
#X obj 186 213 +;
#X obj 108 291 f;
#X obj 109 76 * -65536;
#X obj 186 77 * -256;
#X obj 252 77 * -1;
#X obj 186 244 - 1;
#X obj 56 84 t b b;
#X connect 0 0 18 0;
#X connect 1 0 14 0;
#X connect 2 0 15 0;
#X connect 3 0 16 0;
#X connect 9 0 10 0;
#X connect 9 1 10 1;
#X connect 10 0 11 0;
#X connect 11 0 12 0;
#X connect 11 1 12 1;
#X connect 12 0 17 0;
#X connect 13 0 4 0;
#X connect 14 0 12 0;
#X connect 15 0 10 0;
#X connect 16 0 9 0;
#X connect 17 0 13 1;
#X connect 18 0 13 0;
#X connect 18 1 17 0;
#X restore 58 229 pd RGB_____________;
#X text 109 207 r;
#X text 141 207 g;
#X text 173 204 b;
#X obj 58 259 t b f;
#X obj 133 18 bng 15 250 50 0 empty empty empty 17 7 0 10 -262144 -1
-1;
#X msg 49 335 \; \$1-floor color \$2 \$2 \$2;
#X obj 49 311 pack f f;
#X obj 81 147 84;
#X obj 112 147 16;
#X obj 143 147 16;
#X obj 50 109 t b b b b;
#X obj 221 147 0;
#X obj 252 147 136;
#X obj 283 147 4;
#X obj 188 113 t b b b b;
#X obj 187 18 bng 15 250 50 0 empty empty empty 17 7 0 10 -262144 -1
-1;
#X obj 33 36 select 1 0;
#X connect 0 0 19 0;
#X connect 1 0 9 0;
#X connect 2 0 6 0;
#X connect 6 0 1 0;
#X connect 6 1 9 1;
#X connect 7 0 13 0;
#X connect 9 0 8 0;
#X connect 10 0 2 1;
#X connect 11 0 2 2;
#X connect 12 0 2 3;
#X connect 13 0 2 0;
#X connect 13 1 10 0;
#X connect 13 2 11 0;
#X connect 13 3 12 0;
#X connect 14 0 2 1;
#X connect 15 0 2 2;
#X connect 16 0 2 3;
#X connect 17 0 2 0;
#X connect 17 1 14 0;
#X connect 17 2 15 0;
#X connect 17 3 16 0;
#X connect 18 0 17 0;
#X connect 19 0 13 0;
#X connect 19 1 17 0;
#X restore 201 71 pd floor-animate;
#X connect 0 0 8 0;
#X connect 1 0 9 0;
#X coords 0 -1 1 1 60 127 1 10 155;
