#N canvas 435 312 756 518 10;
#X obj 573 112 hsl 128 15 0 127 0 0 empty empty empty -2 -8 0 10 -262144
-1 -1 0 1;
#X obj 17 321 hradio 8 1 0 8 empty empty empty 0 -8 0 10 -262144 -1
-1 7;
#X obj 532 72 line;
#X obj 225 22 inlet;
#X obj 292 21 inlet;
#X text 233 39 door;
#X text 295 40 floor;
#X obj 538 157 s ld\$0;
#X obj 593 157 s rd\$0;
#X msg 541 48 0 \, 127 1000;
#X msg 532 25 127 \, 0 1000;
#X text 619 24 open;
#X text 628 47 close;
#X obj 216 259 line;
#X text 303 206 open;
#X text 336 230 close;
#X msg 216 207 25 \, 1 1000;
#X msg 249 231 1 \, 25 1000;
#X obj 13 181 hsl 55 100 0 127 0 0 empty empty empty -2 -8 0 10 -128992
-128992 -1 0 1;
#X obj 43 181 hsl 25 100 127 0 0 0 empty \$0-rdgui empty -2 -8 0 10
-228856 -228856 -1 0 1;
#X obj 13 181 hsl 25 100 0 127 0 0 empty \$0-ldgui empty -2 -8 0 10
-228856 -228856 -1 0 1;
#X obj 13 171 hsl 55 8 0 127 0 0 empty empty empty -2 -8 0 10 -86277
-86277 -1 0 1;
#X msg 218 369 \; \$1-ldgui size \$2 100;
#X obj 218 348 pack f f;
#X obj 218 327 \$0;
#X obj 218 307 t b f;
#X obj 372 365 pack f f;
#X obj 372 344 \$0;
#X msg 372 390 \; \$1-rdgui size \$2 100;
#X obj 512 340 \$0;
#X obj 220 79 select 0 1;
#X obj 512 361 pack f f;
#X obj 376 297 t b f;
#X obj 516 286 line;
#X text 603 233 open;
#X text 636 257 close;
#X obj 512 314 t b f;
#X msg 527 390 \; \$1-rdgui pos \$2 181;
#X msg 549 258 67 \, 43 1000;
#X msg 516 235 43 \, 66 1000;
#X obj 153 76 loadbang;
#X connect 0 0 7 0;
#X connect 0 0 8 0;
#X connect 2 0 7 0;
#X connect 2 0 8 0;
#X connect 3 0 30 0;
#X connect 9 0 2 0;
#X connect 9 0 2 0;
#X connect 10 0 2 0;
#X connect 13 0 25 0;
#X connect 13 0 32 0;
#X connect 16 0 13 0;
#X connect 17 0 13 0;
#X connect 17 0 13 0;
#X connect 23 0 22 0;
#X connect 24 0 23 0;
#X connect 25 0 24 0;
#X connect 25 1 23 1;
#X connect 26 0 28 0;
#X connect 27 0 26 0;
#X connect 29 0 31 0;
#X connect 30 0 16 0;
#X connect 30 0 39 0;
#X connect 30 1 17 0;
#X connect 30 1 38 0;
#X connect 31 0 37 0;
#X connect 32 0 27 0;
#X connect 32 1 26 1;
#X connect 33 0 36 0;
#X connect 36 0 29 0;
#X connect 36 1 31 1;
#X connect 38 0 33 0;
#X connect 38 0 33 0;
#X connect 39 0 33 0;
#X connect 40 0 17 0;
#X connect 40 0 38 0;
#X coords 0 -1 1 1 60 127 1 10 155;
