#N canvas 541 144 529 415 10;
#X obj 149 386 dac~;
#X obj 249 71 table blarg;
#X obj 249 50 soundfiler;
#X msg 248 31 read -resize car_1_plucks_1.wav blarg;
#X obj 248 11 loadbang;
#X obj 201 115 bng 15 250 50 0 empty empty empty 17 7 0 10 -262144
-1 -1;
#X obj 153 345 *~;
#X obj 231 165 adssr~ foo1;
#X obj 50 210 tabplay~ blarg;
#X msg 257 121 save test01;
#X msg 361 99 load test02;
#X msg 255 101 load test01;
#X msg 363 119 save test02;
#X connect 3 0 2 0;
#X connect 4 0 3 0;
#X connect 5 0 7 0;
#X connect 5 0 8 0;
#X connect 6 0 0 0;
#X connect 6 0 0 1;
#X connect 7 0 6 1;
#X connect 8 0 6 0;
#X connect 9 0 7 0;
#X connect 10 0 7 0;
#X connect 11 0 7 0;
#X connect 12 0 7 0;
