#N canvas 73 354 450 300 10;
#X obj 173 152 *~;
#X obj 226 151 *~;
#X obj 255 105 hsl 128 15 0 1 0 0 empty empty empty -2 -8 0 10 -262144
-1 -1 1900 1;
#X obj 177 199 dac~ 3 4;
#X obj 120 45 noise~;
#X connect 0 0 3 0;
#X connect 1 0 3 1;
#X connect 2 0 1 1;
#X connect 2 0 0 1;
#X connect 4 0 0 0;
#X connect 4 0 1 0;
