#N canvas 164 105 927 596 10;
#X obj 23 30 tgl 15 0 sgdoor1 rgdoor1 empty 17 7 0 10 -262144 -1 -1
0 1;
#X obj 69 31 tgl 15 0 sgfloor1 rgfloor1 empty 17 7 0 10 -262144 -1
-1 0 1;
#X obj 519 24 ontrak;
#X obj 519 48 to_cars;
#X obj 94 30 tgl 15 0 sgdoor2 rgdoor2 empty 17 7 0 10 -262144 -1 -1
0 1;
#X obj 140 31 tgl 15 0 sgfloor2 rgfloor2 empty 17 7 0 10 -262144 -1
-1 0 1;
#X obj 164 31 tgl 15 0 sgdoor3 rgdoor3 empty 17 7 0 10 -262144 -1 -1
0 1;
#X obj 210 32 tgl 15 0 sgfloor3 rgfloor3 empty 17 7 0 10 -262144 -1
-1 0 1;
#X obj 235 31 tgl 15 0 sgdoor4 rgdoor4 empty 17 7 0 10 -262144 -1 -1
0 1;
#X obj 281 32 tgl 15 0 sgfloor4 rgfloor4 empty 17 7 0 10 -262144 -1
-1 0 1;
#X obj 235 51 vcar 2;
#X obj 23 50 vcar 1;
#X obj 94 50 vcar 2;
#X obj 164 51 vcar 1;
#N canvas 612 553 455 247 guibridge 0;
#X text 23 13 in order to do better simulate via gui stuff;
#X text 26 30 we translate the car send symbols to different names
;
#X obj 14 89 r door1;
#X obj 85 88 r door2;
#X obj 157 88 r door3;
#X obj 227 88 r door4;
#X obj 18 153 r floor1;
#X obj 97 153 r floor2;
#X obj 175 153 r floor3;
#X obj 252 153 r floor4;
#X obj 14 114 s rgdoor1;
#X obj 85 113 s rgdoor2;
#X obj 156 113 s rgdoor3;
#X obj 227 113 s rgdoor4;
#X obj 16 180 s rgfloor1;
#X obj 95 180 s rgfloor2;
#X obj 173 180 s rgfloor3;
#X obj 250 180 s rgfloor4;
#X connect 2 0 10 0;
#X connect 3 0 11 0;
#X connect 4 0 12 0;
#X connect 5 0 13 0;
#X connect 6 0 14 0;
#X connect 7 0 15 0;
#X connect 8 0 16 0;
#X connect 9 0 17 0;
#X restore 404 60 pd guibridge;
#X obj 489 278 soundfiler;
#X obj 560 278 table s1;
#X msg 489 254 read -resize -maxsize 4e+07 ~/Clouds_57-65_01_R.wav
s1;
#X obj 35 413 elevator-looper~;
#X obj 35 389 bng 15 250 50 0 empty empty empty 17 7 0 10 -262144 -1
-1;
#X msg 123 386 s1;
#X obj 147 556 dac~ 1 2 3 4 5 6 7 8;
#X obj 490 343 soundfiler;
#X obj 561 343 table s2;
#X msg 490 319 read -resize -maxsize 4e+07 ~/Sun_60-70_04.wav s2;
#X msg 154 386 s2;
#X obj 222 414 elevator-looper~;
#X obj 222 390 bng 15 250 50 0 empty empty empty 17 7 0 10 -262144
-1 -1;
#X msg 310 387 s1;
#X msg 346 386 s2;
#X connect 0 0 11 0;
#X connect 1 0 11 1;
#X connect 2 0 3 0;
#X connect 4 0 12 0;
#X connect 5 0 12 1;
#X connect 6 0 13 0;
#X connect 7 0 13 1;
#X connect 8 0 10 0;
#X connect 9 0 10 1;
#X connect 17 0 15 0;
#X connect 18 0 21 0;
#X connect 19 0 18 0;
#X connect 20 0 18 1;
#X connect 24 0 22 0;
#X connect 25 0 18 1;
#X connect 26 0 21 1;
#X connect 27 0 26 0;
#X connect 28 0 26 1;
#X connect 29 0 26 1;
