#N canvas -242 180 927 596 10;
#X obj 23 30 tgl 15 0 sgdoor1 rgdoor1 empty 17 7 0 10 -262144 -1 -1
0 1;
#X obj 69 31 tgl 15 0 sgfloor1 rgfloor1 empty 17 7 0 10 -262144 -1
-1 0 1;
#X obj 519 24 ontrak;
#X obj 519 48 to_cars;
#X obj 94 30 tgl 15 0 sgdoor2 rgdoor2 empty 17 7 0 10 -262144 -1 -1
0 1;
#X obj 140 31 tgl 15 0 sgfloor2 rgfloor2 empty 17 7 0 10 -262144 -1
-1 0 1;
#X obj 164 31 tgl 15 0 sgdoor3 rgdoor3 empty 17 7 0 10 -262144 -1 -1
0 1;
#X obj 210 32 tgl 15 0 sgfloor3 rgfloor3 empty 17 7 0 10 -262144 -1
-1 0 1;
#X obj 235 31 tgl 15 0 sgdoor4 rgdoor4 empty 17 7 0 10 -262144 -1 -1
0 1;
#X obj 281 32 tgl 15 0 sgfloor4 rgfloor4 empty 17 7 0 10 -262144 -1
-1 0 1;
#X obj 235 51 vcar 2;
#X obj 23 50 vcar 1;
#X obj 94 50 vcar 2;
#X obj 164 51 vcar 1;
#N canvas 483 328 455 247 guibridge 0;
#X text 23 13 in order to do better simulate via gui stuff;
#X text 26 30 we translate the car send symbols to different names
;
#X obj 14 89 r door1;
#X obj 85 88 r door2;
#X obj 157 88 r door3;
#X obj 227 88 r door4;
#X obj 18 153 r floor1;
#X obj 97 153 r floor2;
#X obj 175 153 r floor3;
#X obj 252 153 r floor4;
#X obj 14 114 s rgdoor1;
#X obj 85 113 s rgdoor2;
#X obj 156 113 s rgdoor3;
#X obj 227 113 s rgdoor4;
#X obj 16 180 s rgfloor1;
#X obj 95 180 s rgfloor2;
#X obj 173 180 s rgfloor3;
#X obj 250 180 s rgfloor4;
#X connect 2 0 10 0;
#X connect 3 0 11 0;
#X connect 4 0 12 0;
#X connect 5 0 13 0;
#X connect 6 0 14 0;
#X connect 7 0 15 0;
#X connect 8 0 16 0;
#X connect 9 0 17 0;
#X restore 404 60 pd guibridge;
#X obj 53 317 bass~ 1;
#X obj 242 316 highmids~ 1;
#X obj 139 317 lowmids~ 1;
#X obj 491 128 bng 15 250 50 0 empty empty empty 17 7 0 10 -262144
-1 -1;
#X obj 497 191 audio_tables_loader;
#X obj 343 317 plucks~ 1;
#X obj 258 371 highs~ 1;
#X obj 65 412 output~;
#X connect 0 0 11 0;
#X connect 1 0 11 1;
#X connect 2 0 3 0;
#X connect 4 0 12 0;
#X connect 5 0 12 1;
#X connect 6 0 13 0;
#X connect 7 0 13 1;
#X connect 8 0 10 0;
#X connect 9 0 10 1;
#X connect 18 0 19 0;
