#N canvas 696 87 677 537 10;
#X obj 78 265 dac~;
#X obj 94 109 bng 15 250 50 0 empty empty empty 17 7 0 10 -262144 -1
-1;
#X obj 314 20 bng 15 250 50 0 empty empty empty 17 7 0 10 -262144 -1
-1;
#X obj 311 56 audio_tables_loader;
#X obj 316 89 bng 15 250 50 0 empty empty empty 17 7 0 10 -262144 -1
-1;
#X obj 94 223 plucks~ 2;
#X text 73 91 eat/drink me;
#X obj 191 187 s door2;
#X obj 122 187 s floor2;
#X obj 120 162 bng 15 250 50 0 empty empty empty 17 7 0 10 -262144
-1 -1;
#X obj 192 159 bng 15 250 50 0 empty empty empty 17 7 0 10 -262144
-1 -1;
#X connect 1 0 5 0;
#X connect 2 0 3 0;
#X connect 3 0 4 0;
#X connect 5 0 0 0;
#X connect 5 0 0 1;
#X connect 9 0 8 0;
#X connect 10 0 7 0;
